<svg width="175" height="198" viewBox="0 0 175 198" fill="none" xmlns="http://www.w3.org/2000/svg">
<path d="M174.688 176.688C174.688 187.885 172.409 198.107 167.852 207.352C163.294 216.466 157.174 224.279 149.492 230.789C141.94 237.299 133.151 242.378 123.125 246.023C113.229 249.669 102.812 251.492 91.875 251.492C79.6354 251.492 68.1771 249.865 57.5 246.609C46.8229 243.224 37.3828 238.211 29.1797 231.57C21.1068 224.93 14.5312 216.727 9.45312 206.961C4.375 197.195 1.3151 185.867 0.273438 172.977L26.25 169.461C27.8125 188.992 34.6484 203.771 46.7578 213.797C58.737 223.693 73.776 228.641 91.875 228.641C99.5573 228.641 106.784 227.339 113.555 224.734C120.326 222.13 126.25 218.549 131.328 213.992C136.406 209.435 140.378 203.966 143.242 197.586C146.237 191.206 147.734 184.24 147.734 176.688C147.734 166.271 146.107 157.807 142.852 151.297C139.596 144.656 134.779 139.513 128.398 135.867C122.148 132.091 114.401 129.552 105.156 128.25C95.9115 126.948 85.2995 126.297 73.3203 126.297V103.445C82.0443 103.445 90.5729 102.729 98.9062 101.297C107.24 99.8646 114.661 97.3906 121.172 93.875C127.682 90.3594 132.956 85.737 136.992 80.0078C141.029 74.1484 143.047 66.8568 143.047 58.1328C143.047 43.8099 138.294 32.3516 128.789 23.7578C119.284 15.0339 106.979 10.6719 91.875 10.6719C83.4115 10.6719 75.2083 12.2995 67.2656 15.5547C59.4531 18.8099 52.8125 23.1068 47.3438 28.4453C42.1354 33.3932 37.7734 39.513 34.2578 46.8047C30.7422 54.0964 28.9844 62.6901 28.9844 72.5859H4.57031V-7.88281H27.4219V21.8047C30.5469 15.4245 34.5182 10.0859 39.3359 5.78906C44.1536 1.49219 49.4271 -1.95833 55.1562 -4.5625C60.8854 -7.29688 66.875 -9.25 73.125 -10.4219C79.375 -11.5938 85.625 -12.1797 91.875 -12.1797C102.812 -12.1797 113.034 -10.5521 122.539 -7.29688C132.044 -4.17188 140.247 0.385417 147.148 6.375C154.18 12.3646 159.714 19.7214 163.75 28.4453C167.786 37.1693 169.805 47.0651 169.805 58.1328C169.805 72.7161 165.508 84.7604 156.914 94.2656C148.32 103.771 135.951 109.76 119.805 112.234C128.789 113.536 136.667 116.141 143.438 120.047C150.339 123.953 156.068 128.836 160.625 134.695C165.312 140.424 168.828 146.935 171.172 154.227C173.516 161.388 174.688 168.875 174.688 176.688Z" fill="white"/>
</svg>
