<svg width="196" height="198" viewBox="0 0 196 198" fill="none" xmlns="http://www.w3.org/2000/svg">
<path d="M195.867 98.8516C195.867 115.909 194.109 132.38 190.594 148.266C187.078 164.151 181.479 178.148 173.797 190.258C166.115 202.367 156.023 212.133 143.523 219.555C131.154 226.846 116.049 230.492 98.2109 230.492C80.3724 230.492 65.2031 226.846 52.7031 219.555C40.3333 212.133 30.2422 202.367 22.4297 190.258C14.7474 178.148 9.21354 164.151 5.82812 148.266C2.3125 132.38 0.554688 115.909 0.554688 98.8516C0.554688 81.7943 2.3125 65.3229 5.82812 49.4375C9.21354 33.5521 14.8125 19.4896 22.625 7.25C30.5677 -4.98958 40.724 -14.7552 53.0938 -22.0469C65.5938 -29.4688 80.6328 -33.1797 98.2109 -33.1797C115.789 -33.1797 130.763 -29.4688 143.133 -22.0469C155.633 -14.7552 165.724 -4.98958 173.406 7.25C181.089 19.4896 186.753 33.5521 190.398 49.4375C194.044 65.3229 195.867 81.7943 195.867 98.8516ZM168.914 98.8516C168.914 82.0547 167.286 66.9505 164.031 53.5391C160.906 39.9974 156.349 28.474 150.359 18.9688C144.37 9.46354 136.948 2.23698 128.094 -2.71094C119.37 -7.78906 109.409 -10.3281 98.2109 -10.3281C84.2786 -10.3281 72.7552 -7.07292 63.6406 -0.5625C54.6562 5.94792 47.4297 14.4766 41.9609 25.0234C36.4922 35.5703 32.651 47.2891 30.4375 60.1797C28.3542 73.0703 27.3125 85.9609 27.3125 98.8516C27.3125 111.612 28.3542 124.503 30.4375 137.523C32.651 150.414 36.4922 162.068 41.9609 172.484C47.4297 182.771 54.6562 191.234 63.6406 197.875C72.7552 204.385 84.2786 207.641 98.2109 207.641C112.013 207.641 123.471 204.385 132.586 197.875C141.701 191.234 148.992 182.771 154.461 172.484C159.93 162.068 163.706 150.414 165.789 137.523C167.872 124.503 168.914 111.612 168.914 98.8516Z" fill="white"/>
</svg>
