<svg width="16" height="24" viewBox="0 0 16 24" fill="none" xmlns="http://www.w3.org/2000/svg">
<rect y="4" width="16" height="16" fill="black"/>
<path d="M10.1953 17L9.46094 14.5703H6.08594L5.36719 17H3.67188L6.85156 6.80469H8.71094L11.8906 17H10.1953ZM6.51562 13.1406H9.03125L7.78125 8.9375L6.51562 13.1406Z" fill="white" fill-opacity="0.2"/>
<path d="M10.1953 17L9.7167 17.1447L9.8241 17.5H10.1953V17ZM9.46094 14.5703L9.93955 14.4257L9.83215 14.0703H9.46094V14.5703ZM6.08594 14.5703V14.0703H5.71243L5.60648 14.4285L6.08594 14.5703ZM5.36719 17V17.5H5.7407L5.84665 17.1418L5.36719 17ZM3.67188 17L3.19455 16.8511L2.99218 17.5H3.67188V17ZM6.85156 6.80469V6.30469H6.48375L6.37424 6.65582L6.85156 6.80469ZM8.71094 6.80469L9.18826 6.65582L9.07875 6.30469H8.71094V6.80469ZM11.8906 17V17.5H12.5703L12.3679 16.8511L11.8906 17ZM6.51562 13.1406L6.03686 12.9965L5.84289 13.6406H6.51562V13.1406ZM9.03125 13.1406V13.6406H9.70159L9.51051 12.9981L9.03125 13.1406ZM7.78125 8.9375L8.26051 8.79497L7.78423 7.19348L7.30248 8.79334L7.78125 8.9375ZM10.6739 16.8553L9.93955 14.4257L8.98232 14.715L9.7167 17.1447L10.6739 16.8553ZM9.46094 14.0703H6.08594V15.0703H9.46094V14.0703ZM5.60648 14.4285L4.88773 16.8582L5.84665 17.1418L6.5654 14.7121L5.60648 14.4285ZM5.36719 16.5H3.67188V17.5H5.36719V16.5ZM4.1492 17.1489L7.32889 6.95355L6.37424 6.65582L3.19455 16.8511L4.1492 17.1489ZM6.85156 7.30469H8.71094V6.30469H6.85156V7.30469ZM8.23361 6.95355L11.4133 17.1489L12.3679 16.8511L9.18826 6.65582L8.23361 6.95355ZM11.8906 16.5H10.1953V17.5H11.8906V16.5ZM6.51562 13.6406H9.03125V12.6406H6.51562V13.6406ZM9.51051 12.9981L8.26051 8.79497L7.30199 9.08003L8.55199 13.2832L9.51051 12.9981ZM7.30248 8.79334L6.03686 12.9965L6.99439 13.2848L8.26002 9.08166L7.30248 8.79334Z" fill="white"/>
</svg>
