<svg width="285" height="120" viewBox="0 0 285 120" fill="none" xmlns="http://www.w3.org/2000/svg">
<path d="M41.7281 59.6635C36.8037 59.0533 34.3337 55.3997 34.312 50.6393C34.2949 47.1107 34.2907 43.5814 34.2992 40.0512C34.2992 40.0095 34.3201 39.9886 34.3619 39.9886H41.8471C41.8814 39.9886 41.9143 40.0021 41.9385 40.026C41.9628 40.0499 41.9764 40.0824 41.9764 40.1163C41.9755 43.0873 41.9738 46.0661 41.9713 49.0524C41.9687 50.5741 42.3782 52.1546 44.1699 52.3844C46.1445 52.6358 46.8087 51.1767 46.9418 49.4584C47.0604 47.9299 47.0621 46.4005 46.9469 44.8703C46.7729 42.5546 45.6557 40.701 44.2684 38.9124C42.5015 36.635 40.7261 34.3639 38.9421 32.0993C36.4632 28.9499 34.948 25.5746 34.765 21.5482C34.5385 16.5554 34.4182 10.5414 40.1604 8.59713C41.1032 8.27798 42.1342 8.08947 43.2536 8.03159C45.1493 7.93287 46.7703 7.97713 48.1166 8.16436C52.7506 8.81032 54.4463 12.0171 54.4744 16.3729C54.4932 19.2707 54.494 22.1695 54.477 25.069C54.477 25.1107 54.4561 25.1316 54.4143 25.1316L47.1581 25.1546C47.1238 25.1546 47.0909 25.141 47.0667 25.1168C47.0425 25.0926 47.0288 25.0598 47.0288 25.0256C47.0297 22.7193 47.0318 20.3984 47.0352 18.0631C47.0378 16.7227 46.9073 15.0746 45.2078 14.8729C43.1806 14.6329 42.638 15.981 42.5932 17.7363C42.5676 18.7176 42.5915 19.6984 42.6649 20.6788C42.8287 22.8529 43.8384 24.589 45.1323 26.2793C47.0561 28.7933 48.9877 31.3014 50.927 33.8035C53.0577 36.5546 54.6433 39.3133 55.0605 42.8265C55.3178 44.9941 55.3088 47.3903 55.1668 49.6665C54.8455 54.8239 52.3577 59.1669 46.7396 59.6992C44.9548 59.8686 43.2843 59.8567 41.7281 59.6635Z" fill="white"/>
<path d="M32.0274 53.5196C32.0692 55.4081 32.076 57.2639 32.0479 59.0868C32.0453 59.2068 31.9843 59.2668 31.8649 59.2668H24.4436C24.4097 59.2668 24.3771 59.2534 24.3531 59.2294C24.3291 59.2055 24.3156 59.173 24.3156 59.1392V37.086C24.3156 37.0521 24.3021 37.0197 24.2781 36.9957C24.2541 36.9718 24.2216 36.9583 24.1876 36.9583H19.1646C19.1304 36.9583 19.0975 36.9718 19.0732 36.9957C19.049 37.0197 19.0354 37.0521 19.0354 37.086L19.0379 59.1073C19.0379 59.2136 18.9846 59.2668 18.878 59.2668L11.4055 59.2643C11.3526 59.2643 11.3262 59.2379 11.3262 59.1851V8.55406C11.3262 8.51151 11.3475 8.49023 11.3902 8.49023H18.988C19.0006 8.49023 19.0126 8.49521 19.0215 8.50407C19.0304 8.51293 19.0354 8.52494 19.0354 8.53747L19.0418 28.7115C19.0418 28.7258 19.0446 28.7399 19.0502 28.753C19.0557 28.7662 19.0638 28.7782 19.074 28.7882C19.0842 28.7983 19.0964 28.8063 19.1097 28.8118C19.1231 28.8172 19.1374 28.82 19.1518 28.82H24.1876C24.2216 28.82 24.2541 28.8066 24.2781 28.7826C24.3021 28.7587 24.3156 28.7262 24.3156 28.6924V8.57066C24.3156 8.51704 24.3421 8.49023 24.395 8.49023H31.9596C31.9857 8.49023 32.0108 8.50059 32.0292 8.51902C32.0477 8.53746 32.0581 8.56246 32.0581 8.58853C32.0581 23.5017 32.0581 38.4264 32.0581 53.3626C32.0581 53.3847 32.0538 53.4051 32.0453 53.4239C32.0325 53.4545 32.0265 53.4864 32.0274 53.5196Z" fill="white"/>
<path d="M65.2426 29.1392L72.8148 29.143C72.8335 29.143 72.8514 29.1504 72.8646 29.1636C72.8778 29.1767 72.8852 29.1946 72.8852 29.2132L72.8814 36.8243C72.8814 36.8429 72.874 36.8608 72.8608 36.8739C72.8476 36.8871 72.8297 36.8945 72.811 36.8945H65.2426C65.2239 36.8945 65.206 36.9019 65.1928 36.9151C65.1796 36.9282 65.1722 36.9461 65.1722 36.9647L65.1709 51.4413C65.1709 51.4599 65.1783 51.4778 65.1915 51.4909C65.2047 51.5041 65.2226 51.5115 65.2413 51.5115H75.3398C75.3584 51.5115 75.3763 51.5189 75.3895 51.5321C75.4027 51.5452 75.4102 51.5631 75.4102 51.5817V59.1966C75.4102 59.2152 75.4027 59.2331 75.3895 59.2463C75.3763 59.2594 75.3584 59.2668 75.3398 59.2668H57.5001C57.4814 59.2668 57.4635 59.2594 57.4503 59.2463C57.4371 59.2331 57.4297 59.2152 57.4297 59.1966V8.56045C57.4297 8.54183 57.4371 8.52397 57.4503 8.5108C57.4635 8.49763 57.4814 8.49023 57.5001 8.49023H74.9558C74.9745 8.49023 74.9924 8.49763 75.0056 8.5108C75.0188 8.52397 75.0262 8.54183 75.0262 8.56045V15.7924C75.0262 15.811 75.0188 15.8288 75.0056 15.842C74.9924 15.8552 74.9745 15.8626 74.9558 15.8626H65.2426C65.2239 15.8626 65.206 15.87 65.1928 15.8831C65.1796 15.8963 65.1722 15.9142 65.1722 15.9328V29.069C65.1722 29.0782 65.174 29.0873 65.1775 29.0958C65.1811 29.1043 65.1862 29.1121 65.1928 29.1186C65.1993 29.1251 65.2071 29.1303 65.2156 29.1338C65.2242 29.1374 65.2333 29.1392 65.2426 29.1392Z" fill="white"/>
<path d="M90.6579 49.8175L89.652 59.1736C89.6491 59.1994 89.6368 59.2231 89.6175 59.2403C89.5981 59.2575 89.573 59.267 89.5471 59.2668H82.8284C82.8134 59.2669 82.7987 59.2639 82.785 59.2578C82.7714 59.2518 82.7592 59.2429 82.7493 59.2318C82.7393 59.2207 82.7319 59.2076 82.7274 59.1934C82.723 59.1792 82.7216 59.1642 82.7234 59.1494L88.9277 8.58215C88.9308 8.55666 88.9432 8.5332 88.9626 8.51625C88.9819 8.49931 89.0068 8.49005 89.0326 8.49024H98.0331C98.0584 8.49032 98.0829 8.49954 98.1019 8.5162C98.121 8.53286 98.1333 8.55583 98.1367 8.58088L104.745 59.1481C104.747 59.1629 104.746 59.1779 104.742 59.1922C104.738 59.2065 104.73 59.2197 104.72 59.2309C104.711 59.2421 104.699 59.2512 104.685 59.2574C104.671 59.2636 104.657 59.2668 104.642 59.2668H97.3791C97.3532 59.267 97.3281 59.2575 97.3087 59.2403C97.2893 59.2231 97.277 59.1994 97.2742 59.1736L96.2683 49.8149C96.2654 49.7892 96.2531 49.7654 96.2338 49.7482C96.2144 49.731 96.1893 49.7216 96.1634 49.7217L90.7628 49.7243C90.7369 49.7241 90.7118 49.7336 90.6924 49.7508C90.673 49.768 90.6607 49.7917 90.6579 49.8175ZM91.436 42.0519C91.4354 42.0576 91.4361 42.0633 91.4379 42.0687C91.4397 42.0742 91.4427 42.0791 91.4465 42.0833C91.4504 42.0875 91.4551 42.0909 91.4603 42.0932C91.4655 42.0955 91.4712 42.0966 91.4769 42.0966L95.3827 42.0992C95.3884 42.0992 95.3941 42.098 95.3993 42.0957C95.4046 42.0934 95.4093 42.0901 95.4131 42.0859C95.417 42.0817 95.4199 42.0767 95.4217 42.0713C95.4235 42.0659 95.4242 42.0602 95.4237 42.0545L93.4337 23.8132C93.432 23.8038 93.427 23.7952 93.4196 23.7891C93.4123 23.7829 93.403 23.7796 93.3933 23.7796C93.3837 23.7796 93.3744 23.7829 93.3671 23.7891C93.3597 23.7952 93.3547 23.8038 93.353 23.8132L91.436 42.0519Z" fill="white"/>
<path d="M113.786 36.6223C113.732 36.6249 113.705 36.653 113.705 36.7066V59.121C113.705 59.159 113.69 59.1953 113.663 59.2221C113.637 59.249 113.6 59.264 113.562 59.264L106.091 59.2666C106.057 59.2666 106.024 59.253 106 59.2288C105.976 59.2046 105.963 59.1718 105.963 59.1376V8.61381C105.963 8.58063 105.976 8.54881 106 8.52535C106.023 8.50189 106.055 8.48871 106.088 8.48871C110.361 8.48786 114.649 8.48828 118.952 8.48998C124.428 8.49254 126.285 11.7415 126.235 16.7406C126.206 19.7342 126.239 22.7279 126.202 25.7215C126.17 28.2415 125.304 30.6198 122.968 31.7879C122.963 31.7907 122.958 31.7951 122.955 31.8004C122.951 31.8057 122.95 31.8118 122.95 31.8179C122.95 31.8241 122.951 31.83 122.955 31.8351C122.958 31.8402 122.963 31.8441 122.968 31.8466C124.993 32.7615 126.062 34.3466 126.175 36.6019C126.199 37.0717 126.212 37.5436 126.215 38.0176C126.239 42.5283 126.249 47.0389 126.244 51.5496C126.242 54.0198 125.926 56.6138 127.001 58.9359C127.017 58.9713 127.024 59.0102 127.021 59.049C127.019 59.0878 127.006 59.1254 126.985 59.1581C126.964 59.1909 126.935 59.2179 126.901 59.2366C126.867 59.2554 126.829 59.2652 126.79 59.2653H119.459C119.402 59.2652 119.347 59.2488 119.299 59.218C119.252 59.1872 119.214 59.1433 119.192 59.0917C118.809 58.2296 118.613 57.3006 118.602 56.3049C118.539 50.6215 118.52 44.9381 118.544 39.2547C118.55 37.6193 117.92 36.7653 116.279 36.6479C115.439 36.5883 114.608 36.5798 113.786 36.6223ZM116.39 29.2908C118.415 29.0572 118.614 26.7823 118.57 25.221C118.506 22.9908 118.536 20.7568 118.538 18.5253C118.538 16.9857 118.219 15.5585 116.431 15.4359C115.55 15.3747 114.678 15.3602 113.817 15.3925C113.787 15.3935 113.759 15.4061 113.738 15.4275C113.717 15.449 113.705 15.4776 113.705 15.5074V29.2334C113.705 29.2523 113.709 29.271 113.717 29.2883C113.724 29.3056 113.735 29.3212 113.749 29.3342C113.763 29.3471 113.779 29.3571 113.797 29.3634C113.815 29.3698 113.834 29.3725 113.853 29.3713C114.716 29.3125 115.564 29.3866 116.39 29.2908Z" fill="white"/>
<path d="M141.709 59.2668H134.269C134.253 59.2668 134.238 59.2638 134.223 59.2578C134.209 59.2518 134.196 59.2431 134.185 59.2321C134.174 59.221 134.165 59.2079 134.159 59.1935C134.153 59.1791 134.15 59.1637 134.15 59.1481V15.9813C134.15 15.9498 134.137 15.9196 134.115 15.8973C134.093 15.8751 134.063 15.8626 134.031 15.8626H127.774C127.743 15.8626 127.712 15.8501 127.69 15.8278C127.668 15.8055 127.655 15.7753 127.655 15.7439V8.60896C127.655 8.59337 127.658 8.57793 127.664 8.56352C127.67 8.54912 127.679 8.53603 127.69 8.52501C127.701 8.51398 127.714 8.50524 127.729 8.49927C127.743 8.49331 127.759 8.49023 127.774 8.49023H148.204C148.22 8.49023 148.235 8.49331 148.25 8.49927C148.264 8.50524 148.277 8.51398 148.288 8.52501C148.299 8.53603 148.308 8.54912 148.314 8.56352C148.32 8.57793 148.323 8.59337 148.323 8.60896V15.7439C148.323 15.7753 148.311 15.8055 148.288 15.8278C148.266 15.8501 148.236 15.8626 148.204 15.8626H141.948C141.932 15.8626 141.916 15.8656 141.902 15.8716C141.888 15.8776 141.874 15.8863 141.863 15.8973C141.852 15.9084 141.844 15.9215 141.838 15.9359C141.832 15.9503 141.828 15.9657 141.828 15.9813V59.1481C141.828 59.1796 141.816 59.2098 141.794 59.2321C141.771 59.2543 141.741 59.2668 141.709 59.2668Z" fill="white"/>
<path d="M169.022 49.7204L163.579 49.723C163.559 49.7232 163.539 49.7308 163.524 49.7445C163.509 49.7581 163.5 49.7768 163.497 49.797L162.488 59.1928C162.486 59.213 162.476 59.2317 162.461 59.2453C162.446 59.259 162.426 59.2666 162.406 59.2668H155.641C155.629 59.2667 155.618 59.2642 155.607 59.2593C155.596 59.2544 155.587 59.2474 155.579 59.2386C155.571 59.2298 155.566 59.2194 155.562 59.2082C155.559 59.197 155.558 59.1852 155.559 59.1736L161.767 8.563C161.77 8.54281 161.78 8.52424 161.795 8.51082C161.81 8.49741 161.83 8.49008 161.85 8.49024H170.892C170.912 8.49039 170.931 8.49786 170.947 8.51125C170.962 8.52463 170.971 8.54303 170.974 8.563L177.588 59.1749C177.589 59.1865 177.588 59.1983 177.584 59.2095C177.581 59.2207 177.575 59.231 177.568 59.2398C177.56 59.2486 177.55 59.2557 177.54 59.2606C177.529 59.2654 177.517 59.268 177.506 59.2681L170.196 59.263C170.175 59.2628 170.156 59.2552 170.141 59.2415C170.126 59.2279 170.116 59.2092 170.114 59.189L169.104 49.7945C169.102 49.7743 169.092 49.7556 169.077 49.7419C169.062 49.7283 169.043 49.7206 169.022 49.7204ZM168.201 42.0966C168.209 42.0967 168.218 42.0949 168.226 42.0914C168.234 42.088 168.241 42.0829 168.246 42.0765C168.252 42.0701 168.257 42.0626 168.259 42.0544C168.262 42.0462 168.263 42.0375 168.262 42.029L166.282 23.9026C166.249 23.5979 166.216 23.5983 166.184 23.9039L164.27 42.057C164.27 42.0625 164.27 42.068 164.272 42.0732C164.274 42.0785 164.276 42.0833 164.28 42.0874C164.284 42.0915 164.288 42.0948 164.294 42.0971C164.299 42.0993 164.304 42.1005 164.31 42.1004L168.201 42.0966Z" fill="white"/>
<path d="M185.837 30.3583C185.805 30.6562 185.789 30.9226 185.789 31.1575C185.788 40.5073 185.787 49.8553 185.788 59.2017C185.788 59.2197 185.781 59.2369 185.769 59.2496C185.756 59.2623 185.739 59.2694 185.722 59.2694L178.999 59.2617C178.875 59.2617 178.813 59.2 178.813 59.0766V8.55406C178.813 8.53714 178.82 8.5209 178.832 8.50893C178.844 8.49696 178.86 8.49023 178.877 8.49023H185.774C185.797 8.49023 185.811 8.5013 185.816 8.52343L192.331 35.2541C192.386 35.4796 192.413 35.4762 192.413 35.2439L192.41 8.54258C192.41 8.52869 192.415 8.51538 192.425 8.50556C192.435 8.49575 192.448 8.49023 192.462 8.49023H199.417C199.434 8.49023 199.451 8.49696 199.463 8.50893C199.475 8.5209 199.481 8.53714 199.481 8.55406V59.1021C199.481 59.1234 199.477 59.1445 199.469 59.1642C199.461 59.1839 199.449 59.2017 199.434 59.2168C199.419 59.2318 199.401 59.2438 199.381 59.2519C199.361 59.2601 199.34 59.2643 199.319 59.2643L193.275 59.2681C193.246 59.2681 193.218 59.2585 193.196 59.2409C193.173 59.2234 193.157 59.1988 193.151 59.1711L185.862 30.3558C185.85 30.3098 185.842 30.3107 185.837 30.3583Z" fill="white"/>
<path d="M202.563 59.2514C202.501 59.2507 202.441 59.2255 202.398 59.1813C202.354 59.1371 202.329 59.0774 202.329 59.0152V8.61519C202.329 8.58201 202.342 8.55019 202.365 8.52673C202.389 8.50327 202.42 8.49008 202.453 8.49008C206.46 8.48838 210.482 8.48583 214.519 8.48242C218.871 8.47987 221.694 10.4688 222.567 14.7326C222.766 15.7071 222.866 16.6284 222.867 17.4965C222.87 28.2709 222.863 39.045 222.845 49.8186C222.835 55.4931 220.212 59.2322 214.206 59.2641C210.378 59.2845 206.497 59.2803 202.563 59.2514ZM214.908 19.156C214.904 17.5565 214.706 15.519 212.598 15.4156C211.779 15.3756 210.966 15.3671 210.16 15.3901C210.145 15.3904 210.131 15.3966 210.12 15.4074C210.109 15.4181 210.104 15.4325 210.104 15.4475V51.768C210.104 51.8165 210.128 51.842 210.177 51.8446C210.891 51.8837 211.605 51.8829 212.319 51.842C214.731 51.7054 214.926 49.6565 214.927 47.776C214.934 38.2365 214.927 28.6965 214.908 19.156Z" fill="white"/>
<path d="M55.7667 108.43C54.4319 106.688 53.9482 104.427 53.9431 102.282C53.9345 98.8022 53.9358 95.3221 53.9469 91.8421C53.9469 91.8047 53.9652 91.786 54.0019 91.786L61.5243 91.7873C61.567 91.7873 61.5883 91.809 61.5883 91.8524C61.5874 94.3553 61.5887 96.8562 61.5921 99.3549C61.5934 101.143 61.3835 104.06 63.9635 104.178C65.6822 104.256 66.4091 103.114 66.5435 101.552C66.6958 99.7902 66.7329 97.6494 66.5204 96.0983C66.235 94.0264 65.2023 92.4026 63.9033 90.72C62.1177 88.4085 60.3247 86.1026 58.5246 83.8021C56.1826 80.8073 54.7775 77.7702 54.4537 73.9532C53.906 67.5064 54.3308 60.3804 62.653 59.843C69.0761 59.4281 74.0223 60.4736 74.1055 68.1511C74.1371 70.997 74.1426 73.8987 74.1221 76.8562C74.1221 76.8718 74.1159 76.8867 74.1049 76.8977C74.0939 76.9087 74.0789 76.9149 74.0633 76.9149H66.7086C66.6912 76.9149 66.6746 76.9081 66.6624 76.8958C66.6502 76.8836 66.6433 76.8671 66.6433 76.8498C66.6433 74.4021 66.6424 71.9451 66.6407 69.4787C66.6394 67.8894 66.1877 66.5043 64.2694 66.6409C63.1875 66.7192 62.5549 67.2758 62.3715 68.3107C62.1296 69.6702 62.1526 71.3924 62.2947 72.6753C62.5417 74.9094 63.6986 76.6979 65.0462 78.4545C67.3181 81.4162 68.8816 83.4383 69.7364 84.5209C71.6663 86.9656 73.4144 89.3668 74.2565 92.363C74.9271 94.7464 74.9053 97.2779 74.8478 99.8617C74.817 101.269 74.7373 102.373 74.6084 103.173C73.8636 107.797 71.1147 111.038 66.2709 111.502C62.6095 111.852 58.2238 111.641 55.7667 108.43Z" fill="white"/>
<path d="M102.386 106.159C102.385 106.153 102.382 106.148 102.377 106.144C102.373 106.14 102.367 106.138 102.361 106.137C102.354 106.137 102.348 106.139 102.343 106.142C102.338 106.146 102.334 106.15 102.331 106.156C101.229 108.882 98.8426 111.344 95.8199 111.676C90.9837 112.207 88.1644 108.566 87.5527 104.234C87.4785 103.71 87.4414 102.917 87.4414 101.853C87.4379 91.349 87.4439 80.8452 87.4593 70.3414C87.4657 66.3839 88.78 62.0754 92.8534 60.4873C94.9394 59.6741 97.2839 59.7048 99.5567 59.8261C105.815 60.1605 107.581 64.3197 107.656 69.8397C107.684 71.8941 107.698 74.0278 107.698 76.2405C107.698 76.2751 107.685 76.3082 107.66 76.3326C107.636 76.357 107.603 76.3707 107.568 76.3707L100.266 76.3784C100.232 76.3784 100.2 76.3651 100.176 76.3414C100.152 76.3177 100.139 76.2855 100.139 76.252C100.143 74.1303 100.142 72.0031 100.134 69.8703C100.128 68.1648 99.0947 66.8844 97.2583 67.2163C95.4513 67.5431 95.3118 69.518 95.3118 70.9771C95.3075 80.7541 95.3041 90.5316 95.3016 100.309C95.3003 101.959 95.8672 103.912 97.8675 103.899C100.151 103.886 100.683 102.231 100.683 100.332C100.681 96.2388 100.684 92.1546 100.691 88.0797C100.691 88.0663 100.688 88.0531 100.683 88.0408C100.678 88.0285 100.67 88.0173 100.661 88.0079C100.651 87.9985 100.64 87.9911 100.627 87.9861C100.615 87.9811 100.602 87.9787 100.588 87.9788L97.3287 87.9954C97.3115 87.9956 97.2943 87.9923 97.2783 87.9859C97.2624 87.9794 97.2478 87.9698 97.2356 87.9577C97.2233 87.9456 97.2136 87.9312 97.2069 87.9153C97.2003 87.8995 97.1969 87.8824 97.1969 87.8652V80.2988C97.1969 80.265 97.2104 80.2325 97.2344 80.2086C97.2584 80.1846 97.2909 80.1712 97.3249 80.1712H107.93C107.96 80.1712 107.989 80.1829 108.01 80.2037C108.031 80.2245 108.043 80.2528 108.043 80.2822V110.969C108.043 111.012 108.021 111.033 107.979 111.033H103.726C103.707 111.033 103.688 111.026 103.672 111.015C103.657 111.003 103.645 110.986 103.64 110.968L102.386 106.159Z" fill="white"/>
<path d="M161.43 95.5808C161.984 102.434 161.283 111.328 152.09 111.561C150.481 111.602 148.845 111.626 147.259 111.315C142.17 110.319 140.598 106.291 140.585 101.629C140.578 98.3697 140.577 95.1102 140.584 91.8506C140.585 91.8089 140.606 91.788 140.648 91.788H148.195C148.212 91.788 148.228 91.7949 148.241 91.8071C148.253 91.8193 148.26 91.8359 148.26 91.8531C148.26 94.8965 148.26 97.9493 148.26 101.011C148.26 102.911 149.061 104.327 151.167 104.138C152.734 103.996 153.136 102.561 153.234 101.226C153.346 99.7076 153.347 98.1885 153.237 96.6685C153.07 94.3897 152.002 92.568 150.626 90.7974C148.764 88.4008 146.899 86.0076 145.028 83.6178C142.457 80.3344 141.088 76.7625 141.024 72.5817C140.984 70.008 140.872 68.06 141.43 65.8719C142.948 59.928 148.682 59.4353 153.763 59.8719C159.067 60.3276 160.753 63.7183 160.766 68.6191C160.772 71.3638 160.773 74.1085 160.767 76.8531C160.767 76.8697 160.76 76.8857 160.748 76.8974C160.737 76.9091 160.721 76.9157 160.704 76.9157H153.38C153.362 76.9157 153.346 76.9087 153.333 76.8963C153.321 76.8838 153.314 76.8669 153.314 76.8493C153.315 74.5191 153.317 72.1795 153.319 69.8306C153.32 68.5055 153.196 66.8702 151.514 66.6608C149.673 66.431 149.023 67.4753 148.919 69.1055C148.858 70.0485 148.846 70.9927 148.881 71.9383C148.973 74.4008 150.085 76.34 151.548 78.237C153.628 80.9357 155.709 83.6353 157.789 86.3357C159.931 89.1174 161.139 91.9974 161.43 95.5808Z" fill="white"/>
<path d="M172.766 111.635C168.523 111.619 165.122 109.612 164.037 105.347C163.599 103.625 163.491 102.234 163.491 100.268C163.486 90.1543 163.486 80.0403 163.49 69.9262C163.491 64.6437 165.855 60.279 171.674 59.8565C175.973 59.5437 181.007 59.7186 183.004 64.3092C183.822 66.1922 183.955 68.3918 183.96 70.4458C183.966 73.4228 183.966 76.399 183.961 79.3743C183.961 79.3909 183.954 79.4068 183.943 79.4186C183.931 79.4303 183.915 79.4369 183.898 79.4369H176.414C176.4 79.4368 176.386 79.432 176.375 79.4232C176.363 79.4145 176.355 79.4022 176.352 79.3884C176.276 79.0858 176.345 78.7284 176.347 78.5126C176.353 75.8845 176.352 73.2565 176.344 70.6284C176.338 68.4173 175.551 66.6314 172.895 67.2837C171.756 67.5633 171.393 68.785 171.391 69.8062C171.389 80.1867 171.388 90.5671 171.389 100.948C171.389 102.404 171.855 103.914 173.554 104.108C175.511 104.332 176.37 102.673 176.338 101.004C176.263 97.0335 176.356 93.0288 176.348 88.9794C176.348 88.9625 176.355 88.9463 176.367 88.9343C176.379 88.9223 176.395 88.9156 176.412 88.9156H183.9C183.917 88.9156 183.934 88.9225 183.946 88.9347C183.958 88.9469 183.965 88.9634 183.965 88.9807C183.964 92.9177 183.961 96.8641 183.957 100.82C183.952 106.682 181.636 111.607 174.911 111.635C174.195 111.639 173.48 111.639 172.766 111.635Z" fill="white"/>
<path d="M215.581 110.956C210.524 109.157 209.792 103.641 209.788 99.057C209.779 84.5412 209.778 75.2672 209.785 71.2348C209.794 66.6263 211.129 61.7153 216.119 60.2587C218.03 59.7008 220.212 59.7021 222.207 59.8284C229.605 60.3008 230.958 66.0072 230.961 72.1412C230.967 81.2221 230.967 90.3029 230.963 99.3838C230.96 105.519 229.285 111.376 221.838 111.625C219.742 111.695 217.635 111.688 215.581 110.956ZM217.684 99.3123C217.688 101.131 217.629 104.038 220.278 104.133C222.559 104.213 223.064 102.213 223.064 100.405C223.065 90.4927 223.06 80.5804 223.049 70.668C223.047 69.3378 222.638 67.6655 221.179 67.2787C220.275 67.0387 219.483 67.1629 218.803 67.6514C217.586 68.5233 217.69 70.4906 217.687 71.785C217.662 80.9612 217.661 90.137 217.684 99.3123Z" fill="white"/>
<path d="M236.651 109.444C233.831 106.941 233.399 102.89 233.397 99.3848C233.394 89.8733 233.394 80.3622 233.396 70.8516C233.397 65.4439 235.574 60.4818 241.651 59.8933C244.016 59.6635 246.53 59.6558 248.742 60.3937C253.698 62.0481 254.539 67.1405 254.54 71.6469C254.544 81.1158 254.544 90.5847 254.541 100.054C254.54 106.338 252.214 111.607 244.977 111.639C241.922 111.652 239.076 111.599 236.651 109.444ZM243.011 103.927C244.25 104.427 245.782 104 246.283 102.668C246.528 102.019 246.651 101.318 246.651 100.564C246.645 90.7167 246.641 80.8694 246.638 71.0226C246.638 70.009 246.538 69.0579 246.096 68.2741C245.331 66.9196 243.098 66.8035 242.089 67.9179C241.397 68.6852 241.269 70.0013 241.269 71.043C241.264 80.849 241.27 90.655 241.287 100.461C241.29 101.835 241.564 103.343 243.011 103.927Z" fill="white"/>
<path d="M23.6041 111.007C19.5259 111.04 15.4517 111.045 11.3812 111.024C11.3666 111.024 11.3526 111.018 11.3423 111.008C11.332 110.997 11.3262 110.983 11.3262 110.969V60.32C11.3262 60.3047 11.3322 60.2901 11.343 60.2793C11.3538 60.2686 11.3685 60.2625 11.3838 60.2625C15.6121 60.2404 19.848 60.2476 24.0917 60.2842C24.8646 60.291 25.6743 60.4208 26.5206 60.6736C31.0177 62.0204 31.829 65.9663 31.8303 70.0923C31.8354 80.6531 31.8363 91.2144 31.8329 101.776C31.8329 102.2 31.7842 102.807 31.687 103.597C31.12 108.185 28.3519 110.97 23.6041 111.007ZM23.8856 70.9221C23.8831 69.2229 23.6297 67.1906 21.4016 67.1855C20.2908 67.1829 19.5294 67.1804 19.1173 67.1778C19.0661 67.1778 19.0405 67.2034 19.0405 67.2544L19.0367 103.53C19.0367 103.58 19.0618 103.606 19.1122 103.608C21.1265 103.687 23.2829 103.926 23.7449 101.518C23.8472 100.982 23.8984 100.44 23.8984 99.8931C23.901 90.2361 23.8967 80.5791 23.8856 70.9221Z" fill="white"/>
<path d="M34.5527 110.948V60.3401C34.5527 60.3178 34.5616 60.2963 34.5775 60.2805C34.5933 60.2647 34.6148 60.2559 34.6372 60.2559H52.0648C52.0872 60.2559 52.1087 60.2647 52.1245 60.2805C52.1404 60.2963 52.1493 60.3178 52.1493 60.3401V67.5439C52.1493 67.5663 52.1404 67.5877 52.1245 67.6035C52.1087 67.6193 52.0872 67.6282 52.0648 67.6282H42.3797C42.3686 67.6282 42.3576 67.6304 42.3474 67.6346C42.3371 67.6388 42.3278 67.6451 42.32 67.6529C42.3121 67.6607 42.3059 67.67 42.3016 67.6802C42.2974 67.6904 42.2952 67.7014 42.2952 67.7125V80.8256C42.2952 80.8367 42.2974 80.8477 42.3016 80.8579C42.3059 80.8681 42.3121 80.8774 42.32 80.8852C42.3278 80.893 42.3371 80.8993 42.3474 80.9035C42.3576 80.9077 42.3686 80.9099 42.3797 80.9099L49.9532 80.9022C49.9756 80.9022 49.9971 80.9111 50.013 80.9269C50.0288 80.9427 50.0377 80.9642 50.0377 80.9865V88.5759C50.0377 88.5982 50.0288 88.6196 50.013 88.6354C49.9971 88.6512 49.9756 88.6601 49.9532 88.6601H42.3797C42.3686 88.6601 42.3576 88.6623 42.3474 88.6665C42.3371 88.6708 42.3278 88.677 42.32 88.6848C42.3121 88.6926 42.3059 88.7019 42.3016 88.7121C42.2974 88.7223 42.2952 88.7333 42.2952 88.7444V103.225C42.2952 103.247 42.3041 103.269 42.32 103.284C42.3358 103.3 42.3573 103.309 42.3797 103.309H52.4807C52.5031 103.309 52.5246 103.318 52.5405 103.334C52.5563 103.35 52.5652 103.371 52.5652 103.393V110.948C52.5652 110.971 52.5563 110.992 52.5405 111.008C52.5246 111.024 52.5031 111.032 52.4807 111.032H34.6372C34.6148 111.032 34.5933 111.024 34.5775 111.008C34.5616 110.992 34.5527 110.971 34.5527 110.948Z" fill="white"/>
<path d="M84.7115 60.2559H77.1149C77.0747 60.2559 77.042 60.2884 77.042 60.3286V110.958C77.042 110.999 77.0747 111.031 77.1149 111.031H84.7115C84.7518 111.031 84.7845 110.999 84.7845 110.958V60.3286C84.7845 60.2884 84.7518 60.2559 84.7115 60.2559Z" fill="white"/>
<path d="M124.296 87.0669V60.3222C124.296 60.3063 124.302 60.2911 124.314 60.2798C124.325 60.2686 124.341 60.2622 124.357 60.2622L131.271 60.2584C131.297 60.2584 131.321 60.2684 131.338 60.2861C131.356 60.3038 131.366 60.3278 131.366 60.3529V110.969C131.366 110.986 131.359 111.002 131.347 111.014C131.335 111.026 131.319 111.032 131.302 111.032H125.125C125.104 111.032 125.083 111.025 125.066 111.012C125.05 110.999 125.038 110.98 125.033 110.96L117.724 82.0627C117.722 82.0527 117.715 82.044 117.707 82.0382C117.698 82.0324 117.688 82.0299 117.678 82.0312C117.668 82.0324 117.658 82.0373 117.652 82.045C117.645 82.0527 117.641 82.0626 117.641 82.0729C117.642 82.0925 117.644 82.1103 117.647 82.1265C117.655 82.1549 117.661 82.1813 117.665 82.2025C117.67 82.2236 117.673 82.2385 117.673 82.2452V110.969C117.673 110.986 117.666 111.002 117.654 111.014C117.642 111.026 117.626 111.032 117.609 111.032H110.826C110.792 111.032 110.76 111.019 110.736 110.995C110.712 110.971 110.698 110.939 110.698 110.905V60.3197C110.698 60.3028 110.705 60.2865 110.717 60.2746C110.729 60.2626 110.745 60.2559 110.762 60.2559H117.643C117.656 60.2559 117.667 60.26 117.677 60.2677C117.686 60.2753 117.693 60.286 117.696 60.298L124.221 87.0759C124.222 87.0807 124.223 87.0854 124.226 87.0897C124.228 87.094 124.232 87.0977 124.235 87.1007C124.239 87.1037 124.244 87.106 124.248 87.1073C124.253 87.1086 124.258 87.109 124.263 87.1084C124.268 87.1078 124.273 87.1063 124.277 87.1039C124.281 87.1015 124.285 87.0983 124.288 87.0944C124.291 87.0906 124.293 87.0861 124.294 87.0814C124.296 87.0767 124.296 87.0718 124.296 87.0669Z" fill="white"/>
<path d="M194.142 88.8171L194.134 110.939C194.134 110.952 194.132 110.964 194.127 110.975C194.123 110.986 194.116 110.997 194.107 111.005C194.098 111.014 194.088 111.021 194.077 111.025C194.065 111.03 194.053 111.032 194.041 111.032H186.488C186.463 111.032 186.439 111.023 186.422 111.005C186.404 110.988 186.395 110.964 186.395 110.939V60.3516C186.395 60.3269 186.404 60.3032 186.422 60.2857C186.439 60.2682 186.463 60.2584 186.488 60.2584L194.045 60.2648C194.07 60.2648 194.093 60.2746 194.111 60.2921C194.128 60.3096 194.138 60.3333 194.138 60.358L194.136 80.4925C194.136 80.5172 194.146 80.5409 194.163 80.5584C194.181 80.5758 194.204 80.5856 194.229 80.5856H199.291C199.315 80.5856 199.339 80.5758 199.357 80.5584C199.374 80.5409 199.384 80.5172 199.384 80.4925V60.3491C199.384 60.3243 199.394 60.3006 199.411 60.2832C199.429 60.2657 199.453 60.2559 199.477 60.2559H207.065C207.09 60.2559 207.114 60.2657 207.131 60.2832C207.149 60.3006 207.158 60.3243 207.158 60.3491V110.939C207.158 110.964 207.149 110.988 207.131 111.005C207.114 111.023 207.09 111.032 207.065 111.032H199.477C199.453 111.032 199.429 111.023 199.411 111.005C199.394 110.988 199.384 110.964 199.384 110.939V88.8171C199.384 88.7924 199.374 88.7687 199.357 88.7512C199.339 88.7338 199.315 88.7239 199.291 88.7239H194.236C194.211 88.7239 194.187 88.7338 194.169 88.7512C194.152 88.7687 194.142 88.7924 194.142 88.8171Z" fill="white"/>
<path d="M265.032 103.181H274.288C274.312 103.181 274.335 103.191 274.352 103.208C274.369 103.225 274.379 103.248 274.379 103.272V110.942C274.379 110.966 274.369 110.989 274.352 111.006C274.335 111.023 274.312 111.032 274.288 111.032H257.289C257.265 111.032 257.242 111.023 257.225 111.006C257.208 110.989 257.198 110.966 257.198 110.942V60.3465C257.198 60.3225 257.208 60.2994 257.225 60.2824C257.242 60.2654 257.265 60.2559 257.289 60.2559H264.85C264.874 60.2559 264.897 60.2654 264.914 60.2824C264.931 60.2994 264.941 60.3225 264.941 60.3465V103.091C264.941 103.115 264.95 103.138 264.967 103.155C264.984 103.172 265.007 103.181 265.032 103.181Z" fill="white"/>
</svg>
