<svg width="175" height="198" viewBox="0 0 175 198" fill="none" xmlns="http://www.w3.org/2000/svg">
<path d="M174.688 176.688C174.688 187.885 172.409 198.107 167.852 207.352C163.294 216.466 157.174 224.279 149.492 230.789C141.94 237.299 133.151 242.378 123.125 246.023C113.229 249.669 102.812 251.492 91.875 251.492C79.5052 251.492 67.9818 249.799 57.3047 246.414C46.7578 243.029 37.3828 238.081 29.1797 231.57C21.1068 225.06 14.5312 216.857 9.45312 206.961C4.375 197.065 1.3151 185.737 0.273438 172.977L26.25 169.461C27.8125 189.122 34.6484 203.901 46.7578 213.797C58.8672 223.693 73.9062 228.641 91.875 228.641C99.5573 228.641 106.784 227.404 113.555 224.93C120.326 222.326 126.25 218.68 131.328 213.992C136.406 209.305 140.378 203.836 143.242 197.586C146.237 191.336 147.734 184.37 147.734 176.688C147.734 166.271 146.042 157.807 142.656 151.297C139.401 144.656 134.648 139.513 128.398 135.867C122.148 132.091 114.401 129.552 105.156 128.25C96.0417 126.948 85.4297 126.297 73.3203 126.297V103.445C82.1745 103.445 90.7031 102.729 98.9062 101.297C107.24 99.7344 114.661 97.2604 121.172 93.875C127.682 90.3594 132.956 85.737 136.992 80.0078C141.029 74.2786 143.047 66.987 143.047 58.1328C143.047 43.8099 138.294 32.3516 128.789 23.7578C119.284 15.0339 106.979 10.6719 91.875 10.6719C72.8646 10.6719 57.6302 15.6849 46.1719 25.7109C34.7135 35.6068 28.9844 51.2318 28.9844 72.5859H3.78906C3.78906 59.3047 5.9375 47.3906 10.2344 36.8438C14.5312 26.2969 20.5208 17.4427 28.2031 10.2812C35.8854 2.98958 45.1302 -2.54427 55.9375 -6.32031C66.7448 -10.2266 78.724 -12.1797 91.875 -12.1797C102.812 -12.1797 112.969 -10.5521 122.344 -7.29688C131.849 -4.17188 140.117 0.385417 147.148 6.375C154.31 12.3646 159.844 19.7214 163.75 28.4453C167.786 37.0391 169.805 46.9349 169.805 58.1328C169.805 72.5859 165.443 84.6302 156.719 94.2656C148.125 103.771 135.82 109.76 119.805 112.234C128.919 113.536 136.862 116.141 143.633 120.047C150.404 123.823 156.068 128.706 160.625 134.695C165.182 140.555 168.633 147.065 170.977 154.227C173.451 161.388 174.688 168.875 174.688 176.688Z" fill="white"/>
</svg>
