<svg width="164" height="212" viewBox="0 0 164 212" fill="none" xmlns="http://www.w3.org/2000/svg">
<path d="M66.8432 129.584C67.0822 130.69 67.4258 131.827 67.874 132.994C68.3072 134.161 68.8749 135.291 69.577 136.382L66.0589 139.679L68.9496 143.044L72.2884 139.724C73.3639 140.725 74.5441 141.513 75.8288 142.089C77.1136 142.665 78.5327 142.953 80.0864 142.953C81.3113 142.953 82.4616 142.741 83.5372 142.316C84.6128 141.892 85.539 141.316 86.3158 140.588C87.0926 139.861 87.7051 139.012 88.1533 138.042C88.6014 137.057 88.8255 135.988 88.8255 134.836C88.8255 132.85 88.467 131.228 87.7499 129.97C87.0179 128.712 86.1515 127.636 85.1506 126.742C86.0021 125.65 86.6594 124.559 87.1225 123.468C87.5856 122.361 87.8171 121.171 87.8171 119.898C87.8171 118.746 87.6155 117.7 87.2121 116.76C86.8088 115.805 86.2784 114.994 85.6211 114.327C84.9638 113.66 84.1945 113.153 83.3131 112.804C82.4168 112.44 81.4682 112.258 80.4673 112.258C79.4515 112.258 78.5029 112.417 77.6215 112.736C76.7251 113.039 75.9483 113.479 75.291 114.055C74.6337 114.631 74.1258 115.328 73.7673 116.146C73.3938 116.965 73.2071 117.905 73.2071 118.966C73.2071 119.981 73.3864 120.898 73.7449 121.717C74.0885 122.52 74.5441 123.248 75.1118 123.9C75.6794 124.551 76.3143 125.15 77.0165 125.696C77.7186 126.241 78.4207 126.757 79.1228 127.242L72.7589 133.358C72.3855 132.6 72.0643 131.812 71.7954 130.993C71.5115 130.175 71.2651 129.349 71.0559 128.515L66.8432 129.584ZM79.7726 138.701C78.8913 138.701 78.0771 138.534 77.3302 138.201C76.5683 137.852 75.8662 137.382 75.2238 136.791L82.2599 129.857H82.3048C82.8575 130.448 83.3131 131.107 83.6716 131.835C84.0152 132.562 84.187 133.381 84.187 134.29C84.187 135.594 83.7688 136.655 82.9322 137.473C82.0807 138.292 81.0275 138.701 79.7726 138.701ZM83.1787 119.898C83.1787 120.732 83.104 121.482 82.9546 122.149C82.7903 122.816 82.4317 123.536 81.879 124.309C81.3263 123.945 80.8109 123.581 80.3328 123.217C79.8399 122.838 79.4141 122.429 79.0556 121.99C78.6821 121.55 78.3908 121.08 78.1817 120.58C77.9576 120.065 77.8456 119.496 77.8456 118.875C77.8456 118.162 78.0846 117.586 78.5626 117.147C79.0406 116.707 79.6158 116.487 80.288 116.487C81.1694 116.487 81.8715 116.813 82.3944 117.465C82.9172 118.117 83.1787 118.928 83.1787 119.898Z" fill="white"/>
<path d="M76.5817 147.912C76.5817 157.674 72.1898 162.554 63.4058 162.554H29.9954C26.7537 162.554 23.7996 163.111 21.133 164.225C18.4665 165.287 16.1398 166.825 14.1529 168.841C12.1661 170.857 10.6498 173.218 9.6041 175.924C8.5061 178.629 7.95711 181.6 7.95711 184.836V192.237H16.8195V184.836C16.8195 175.977 21.2115 171.547 29.9954 171.547H63.4058C65.2358 171.547 67.1181 171.202 69.0526 170.512C71.0395 169.769 72.8695 168.788 74.5426 167.568C76.2158 166.295 77.6013 164.809 78.6993 163.111C79.8496 161.414 80.5816 159.583 80.8953 157.62C81.3136 159.583 82.0979 161.44 83.2481 163.191C84.4507 164.942 85.8886 166.427 87.5617 167.647C89.2348 168.815 91.0387 169.769 92.9732 170.512C94.9078 171.202 96.7639 171.547 98.5416 171.547H132.266C141.05 171.547 145.442 175.977 145.442 184.836V192.237H154.147V184.836C154.147 181.6 153.572 178.629 152.422 175.924C151.324 173.218 149.807 170.857 147.873 168.841C145.938 166.825 143.638 165.287 140.971 164.225C138.305 163.111 135.403 162.554 132.266 162.554H98.5416C89.7577 162.554 85.3657 157.674 85.3657 147.912H76.5817Z" fill="white"/>
<path d="M78.1761 206.685C76.0286 206.685 73.8999 206.439 71.7898 205.946C69.661 205.473 67.6256 204.772 65.6836 203.843C63.7229 202.915 61.8742 201.768 60.1376 200.404C58.3823 199.04 56.8417 197.486 55.5159 195.743L51.9587 199.353C53.5272 201.38 55.3105 203.161 57.3086 204.696C59.288 206.249 61.4074 207.566 63.6669 208.646C65.9077 209.745 68.2605 210.579 70.7254 211.147C73.1716 211.716 75.6552 212 78.1761 212C80.697 212 83.1805 211.716 85.6267 211.147C88.073 210.579 90.4258 209.745 92.6853 208.646C94.9448 207.566 97.0642 206.249 99.0436 204.696C101.042 203.161 102.825 201.38 104.393 199.353L100.836 195.743C99.4917 197.486 97.9512 199.04 96.2145 200.404C94.4779 201.768 92.6386 202.915 90.6966 203.843C88.7359 204.772 86.6911 205.473 84.5624 205.946C82.4336 206.439 80.3048 206.685 78.1761 206.685Z" fill="white"/>
<path d="M158.762 99.4086C158.762 101.588 158.519 103.748 158.034 105.889C157.567 108.049 156.876 110.114 155.961 112.084C155.046 114.074 153.916 115.95 152.572 117.712C151.227 119.493 149.696 121.056 147.978 122.401L151.536 126.011C153.534 124.419 155.289 122.61 156.801 120.582C158.333 118.574 159.63 116.423 160.695 114.131C161.778 111.857 162.599 109.47 163.16 106.969C163.72 104.486 164 101.966 164 99.4086C164 96.8507 163.72 94.3307 163.16 91.8486C162.599 89.3665 161.778 86.9792 160.695 84.6865C159.63 82.3939 158.333 80.2434 156.801 78.235C155.289 76.2076 153.534 74.3982 151.536 72.8066L147.978 76.416C149.696 77.7803 151.227 79.3434 152.572 81.1055C153.916 82.8676 155.046 84.7339 155.961 86.7044C156.876 88.6939 157.567 90.7686 158.034 92.9286C158.519 95.0886 158.762 97.2486 158.762 99.4086Z" fill="white"/>
<path d="M129.575 0L125.261 2.15999L146.717 45.9851L151.03 43.8251L129.575 0Z" fill="white"/>
<path d="M98.2593 0L93.9457 2.15999L115.401 45.9851L119.715 43.8251L98.2593 0Z" fill="white"/>
<path d="M66.944 0L62.6305 2.15999L84.0862 45.9851L88.3997 43.8251L66.944 0Z" fill="white"/>
<path d="M35.6288 0L31.3152 2.15999L52.771 45.9851L57.0845 43.8251L35.6288 0Z" fill="white"/>
<path d="M4.31355 0L0 2.15999L21.4557 45.9851L25.7693 43.8251L4.31355 0Z" fill="white"/>
<path d="M85.5214 96.5836H104.327V82.9756C104.327 80.5882 104.025 78.3032 103.42 76.1205C102.781 73.9036 101.722 71.9426 100.244 70.2373C98.7646 68.5321 96.8319 67.1679 94.4454 66.1447C92.0254 65.1215 89.0507 64.61 85.5214 64.61V73.4091C87.5382 73.4091 89.2188 73.6478 90.5632 74.1253C91.9077 74.5687 92.9833 75.2167 93.79 76.0693C94.5631 76.8878 95.1177 77.8769 95.4538 79.0365C95.7899 80.196 95.958 81.5091 95.958 82.9756V83.6918H85.5214V96.5836ZM57.3377 96.5836H76.1437V82.9756C76.1437 80.5882 75.8411 78.3032 75.2361 76.1205C74.5975 73.9036 73.5387 71.9426 72.0598 70.2373C70.5809 68.5321 68.6482 67.1679 66.2617 66.1447C63.8416 65.1215 60.867 64.61 57.3377 64.61V73.4091C59.3544 73.4091 61.035 73.6478 62.3795 74.1253C63.6904 74.5687 64.7492 75.2167 65.5559 76.0693C66.3625 76.8878 66.934 77.8769 67.2701 79.0365C67.6062 80.196 67.7743 81.5091 67.7743 82.9756V83.6918H57.3377V96.5836Z" fill="white"/>
</svg>
