<svg width="196" height="198" viewBox="0 0 196 198" fill="none" xmlns="http://www.w3.org/2000/svg">
<path d="M27.3125 98.8516C27.3125 117.732 29.5911 135.44 34.1484 151.977L153.484 26C147.234 14.2812 139.487 5.29688 130.242 -0.953125C121.128 -7.20312 110.451 -10.3281 98.2109 -10.3281C75.2943 -10.3281 57.7161 -0.5625 45.4766 18.9688C33.3672 38.3698 27.3125 64.9974 27.3125 98.8516ZM43.3281 173.656C56.2188 196.573 74.513 208.031 98.2109 208.031C120.607 208.031 137.99 198.331 150.359 178.93C162.729 159.398 168.914 132.706 168.914 98.8516C168.914 89.4766 168.328 80.6224 167.156 72.2891C165.984 63.8255 164.357 55.7526 162.273 48.0703L43.3281 173.656ZM0.554688 98.8516C0.554688 81.7943 2.3776 65.3229 6.02344 49.4375C9.66927 33.5521 15.3333 19.4896 23.0156 7.25C30.6979 -4.98958 40.724 -14.7552 53.0938 -22.0469C65.5938 -29.4688 80.6328 -33.1797 98.2109 -33.1797C115.789 -33.1797 130.763 -29.4688 143.133 -22.0469C155.633 -14.7552 165.789 -4.98958 173.602 7.25C181.414 19.4896 187.078 33.5521 190.594 49.4375C194.109 65.3229 195.867 81.7943 195.867 98.8516C195.867 115.909 194.109 132.38 190.594 148.266C187.078 164.151 181.479 178.148 173.797 190.258C166.115 202.367 156.023 212.133 143.523 219.555C131.154 226.846 116.049 230.492 98.2109 230.492C80.3724 230.492 65.2031 226.846 52.7031 219.555C40.3333 212.133 30.2422 202.367 22.4297 190.258C14.7474 178.148 9.21354 164.151 5.82812 148.266C2.3125 132.38 0.554688 115.909 0.554688 98.8516Z" fill="white"/>
</svg>
